<?xml version="1.0" encoding="UTF-8" standalone="no"?>
<!DOCTYPE svg PUBLIC "-//W3C//DTD SVG 1.1//EN"
 "http://www.w3.org/Graphics/SVG/1.1/DTD/svg11.dtd">
<!-- Generated by graphviz version 2.43.0 (0)
 -->
<!-- Title: %3 Pages: 1 -->
<svg width="1300pt" height="332pt"
 viewBox="0.00 0.00 1300.21 332.00" xmlns="http://www.w3.org/2000/svg" xmlns:xlink="http://www.w3.org/1999/xlink">
<g id="graph0" class="graph" transform="scale(1 1) rotate(0) translate(4 328)">
<title>%3</title>
<polygon fill="white" stroke="transparent" points="-4,4 -4,-328 1296.21,-328 1296.21,4 -4,4"/>
<!-- [root] aws_instance.app_server (expand) -->
<g id="node1" class="node">
<title>[root] aws_instance.app_server (expand)</title>
<polygon fill="none" stroke="black" points="863.38,-180 669.38,-180 669.38,-144 863.38,-144 863.38,-180"/>
<text text-anchor="middle" x="766.38" y="-158.3" font-family="Times,serif" font-size="14.00">aws_instance.app_server</text>
</g>
<!-- [root] aws_security_group.instance (expand) -->
<g id="node2" class="node">
<title>[root] aws_security_group.instance (expand)</title>
<polygon fill="none" stroke="black" points="877.38,-108 655.38,-108 655.38,-72 877.38,-72 877.38,-108"/>
<text text-anchor="middle" x="766.38" y="-86.3" font-family="Times,serif" font-size="14.00">aws_security_group.instance</text>
</g>
<!-- [root] aws_instance.app_server (expand)&#45;&gt;[root] aws_security_group.instance (expand) -->
<g id="edge1" class="edge">
<title>[root] aws_instance.app_server (expand)&#45;&gt;[root] aws_security_group.instance (expand)</title>
<path fill="none" stroke="black" d="M766.38,-143.7C766.38,-135.98 766.38,-126.71 766.38,-118.11"/>
<polygon fill="black" stroke="black" points="769.88,-118.1 766.38,-108.1 762.88,-118.1 769.88,-118.1"/>
</g>
<!-- [root] provider[&quot;registry.terraform.io/hashicorp/aws&quot;] -->
<g id="node3" class="node">
<title>[root] provider[&quot;registry.terraform.io/hashicorp/aws&quot;]</title>
<polygon fill="none" stroke="black" points="325.38,-36 0.12,-18 325.38,0 650.65,-18 325.38,-36"/>
<text text-anchor="middle" x="325.38" y="-14.3" font-family="Times,serif" font-size="14.00">provider[&quot;registry.terraform.io/hashicorp/aws&quot;]</text>
</g>
<!-- [root] aws_security_group.instance (expand)&#45;&gt;[root] provider[&quot;registry.terraform.io/hashicorp/aws&quot;] -->
<g id="edge2" class="edge">
<title>[root] aws_security_group.instance (expand)&#45;&gt;[root] provider[&quot;registry.terraform.io/hashicorp/aws&quot;]</title>
<path fill="none" stroke="black" d="M659.06,-71.97C584.34,-60.1 485.82,-44.47 415.24,-33.26"/>
<polygon fill="black" stroke="black" points="415.46,-29.75 405.04,-31.64 414.36,-36.67 415.46,-29.75"/>
</g>
<!-- [root] var.security_group_name -->
<g id="node4" class="node">
<title>[root] var.security_group_name</title>
<polygon fill="none" stroke="black" points="857.88,-36 668.88,-36 668.88,0 863.88,0 863.88,-30 857.88,-36"/>
<polyline fill="none" stroke="black" points="857.88,-36 857.88,-30 "/>
<polyline fill="none" stroke="black" points="863.88,-30 857.88,-30 "/>
<text text-anchor="middle" x="766.38" y="-14.3" font-family="Times,serif" font-size="14.00">var.security_group_name</text>
</g>
<!-- [root] aws_security_group.instance (expand)&#45;&gt;[root] var.security_group_name -->
<g id="edge3" class="edge">
<title>[root] aws_security_group.instance (expand)&#45;&gt;[root] var.security_group_name</title>
<path fill="none" stroke="black" d="M766.38,-71.7C766.38,-63.98 766.38,-54.71 766.38,-46.11"/>
<polygon fill="black" stroke="black" points="769.88,-46.1 766.38,-36.1 762.88,-46.1 769.88,-46.1"/>
</g>
<!-- [root] var.server_port -->
<g id="node5" class="node">
<title>[root] var.server_port</title>
<polygon fill="none" stroke="black" points="1000.88,-36 881.88,-36 881.88,0 1006.88,0 1006.88,-30 1000.88,-36"/>
<polyline fill="none" stroke="black" points="1000.88,-36 1000.88,-30 "/>
<polyline fill="none" stroke="black" points="1006.88,-30 1000.88,-30 "/>
<text text-anchor="middle" x="944.38" y="-14.3" font-family="Times,serif" font-size="14.00">var.server_port</text>
</g>
<!-- [root] aws_security_group.instance (expand)&#45;&gt;[root] var.server_port -->
<g id="edge4" class="edge">
<title>[root] aws_security_group.instance (expand)&#45;&gt;[root] var.server_port</title>
<path fill="none" stroke="black" d="M809.93,-71.88C834.58,-62.18 865.61,-49.98 891.64,-39.74"/>
<polygon fill="black" stroke="black" points="892.95,-42.99 900.98,-36.07 890.39,-36.47 892.95,-42.99"/>
</g>
<!-- [root] output.public_ip (expand) -->
<g id="node6" class="node">
<title>[root] output.public_ip (expand)</title>
<ellipse fill="none" stroke="black" cx="532.38" cy="-234" rx="157.87" ry="18"/>
<text text-anchor="middle" x="532.38" y="-230.3" font-family="Times,serif" font-size="14.00">[root] output.public_ip (expand)</text>
</g>
<!-- [root] output.public_ip (expand)&#45;&gt;[root] aws_instance.app_server (expand) -->
<g id="edge5" class="edge">
<title>[root] output.public_ip (expand)&#45;&gt;[root] aws_instance.app_server (expand)</title>
<path fill="none" stroke="black" d="M585.77,-217.03C619.56,-206.92 663.5,-193.78 699.59,-182.98"/>
<polygon fill="black" stroke="black" points="700.97,-186.22 709.54,-180 698.96,-179.52 700.97,-186.22"/>
</g>
<!-- [root] provider[&quot;registry.terraform.io/hashicorp/aws&quot;] (close) -->
<g id="node7" class="node">
<title>[root] provider[&quot;registry.terraform.io/hashicorp/aws&quot;] (close)</title>
<ellipse fill="none" stroke="black" cx="1000.38" cy="-234" rx="291.65" ry="18"/>
<text text-anchor="middle" x="1000.38" y="-230.3" font-family="Times,serif" font-size="14.00">[root] provider[&quot;registry.terraform.io/hashicorp/aws&quot;] (close)</text>
</g>
<!-- [root] provider[&quot;registry.terraform.io/hashicorp/aws&quot;] (close)&#45;&gt;[root] aws_instance.app_server (expand) -->
<g id="edge6" class="edge">
<title>[root] provider[&quot;registry.terraform.io/hashicorp/aws&quot;] (close)&#45;&gt;[root] aws_instance.app_server (expand)</title>
<path fill="none" stroke="black" d="M944.63,-216.32C911.14,-206.31 868.34,-193.5 833.07,-182.95"/>
<polygon fill="black" stroke="black" points="833.92,-179.55 823.33,-180.04 831.91,-186.26 833.92,-179.55"/>
</g>
<!-- [root] root -->
<g id="node8" class="node">
<title>[root] root</title>
<ellipse fill="none" stroke="black" cx="766.38" cy="-306" rx="58.49" ry="18"/>
<text text-anchor="middle" x="766.38" y="-302.3" font-family="Times,serif" font-size="14.00">[root] root</text>
</g>
<!-- [root] root&#45;&gt;[root] output.public_ip (expand) -->
<g id="edge7" class="edge">
<title>[root] root&#45;&gt;[root] output.public_ip (expand)</title>
<path fill="none" stroke="black" d="M725.89,-292.89C690.04,-282.16 637.14,-266.34 595.7,-253.94"/>
<polygon fill="black" stroke="black" points="596.55,-250.54 585.97,-251.03 594.55,-257.25 596.55,-250.54"/>
</g>
<!-- [root] root&#45;&gt;[root] provider[&quot;registry.terraform.io/hashicorp/aws&quot;] (close) -->
<g id="edge8" class="edge">
<title>[root] root&#45;&gt;[root] provider[&quot;registry.terraform.io/hashicorp/aws&quot;] (close)</title>
<path fill="none" stroke="black" d="M806.87,-292.89C842.11,-282.34 893.84,-266.87 934.95,-254.57"/>
<polygon fill="black" stroke="black" points="936.05,-257.9 944.62,-251.68 934.04,-251.19 936.05,-257.9"/>
</g>
</g>
</svg>
